<svg width="276" height="206" viewBox="0 0 276 206" fill="none" xmlns="http://www.w3.org/2000/svg">
<path d="M101.762 62.685C119.641 62.685 134.786 74.3624 139.969 90.4936L131.784 100.005L120.71 86.8546L117.143 90.9999L117.156 91.0155L103.889 106.43L95.9976 97.0585L96.0077 97.0473L92.4848 92.863L66.3602 121.605L66.6082 122.061L67 122.754L67.3637 123.369L67.7521 124L68.1434 124.61L68.5666 125.244L69 125.867L69.4581 126.5L92.4289 101.204L103.844 114.76L120.679 95.1988L131.714 108.304L131.777 108.229L131.804 108.26L141.474 97.0239C141.741 98.8911 141.882 100.799 141.882 102.74C141.882 124.863 123.92 142.796 101.762 142.796C79.6037 142.796 61.641 124.862 61.641 102.74C61.6413 80.6188 79.6039 62.6851 101.762 62.685ZM156.678 87.7767L152.181 84.5836L141.474 97.0239C141.153 94.7817 140.646 92.5999 139.969 90.4936L147.759 81.4442L143.931 78.7251L160.223 69.5516L156.678 87.7767Z" fill="#25A59F"/>
<path d="M171.067 156.54C163.729 165.786 154.595 173.456 144.214 179.09C133.833 184.723 122.418 188.204 110.655 189.324C98.8931 190.443 87.0257 189.177 75.7657 185.603C64.5055 182.029 54.7683 176.695 45.813 169L67 144C72.6316 148.839 78.5457 152.39 85.6268 154.637C92.7078 156.885 100.171 157.68 107.568 156.977C114.964 156.273 122.142 154.083 128.67 150.54C135.199 146.997 140.943 142.174 145.557 136.36L171.067 156.54Z" fill="#25A59F"/>
<path d="M78.543 52.5004C70.4617 56.3588 63.4434 62.1248 58.0953 69.2993C52.7475 76.4737 49.2308 84.8408 47.8491 93.6768C46.4675 102.513 47.263 111.553 50.1664 120.014C53.0698 128.474 57.9931 136.101 64.512 142.235L43.2997 166.83C32.9335 157.075 23.9931 143.999 19.3762 130.545C14.7594 117.091 13.4952 102.717 15.6922 88.6654C17.8892 74.6141 23.4813 61.3085 31.9856 49.8997C40.4899 38.4909 51.6501 29.322 64.5008 23.1863L78.543 52.5004Z" fill="#25A59F"/>
<path d="M67.5 21.7108C84.5775 14.4742 104.087 12.6981 122.159 16.8852C140.23 21.0724 156.507 30.8743 168.646 44.8804L144.036 66.1432C136.402 57.3354 126.166 51.1716 114.802 48.5384C103.437 45.9053 92.2393 46.4492 81.5 51L67.5 21.7108Z" fill="#25A59F"/>
<path d="M182.685 168.623C167.352 187.143 146.016 199.728 122.37 204.2C98.7244 208.672 74.2565 204.75 53.2011 193.113L55.6994 188.608C75.7021 199.663 98.9466 203.389 121.41 199.14C143.874 194.891 164.143 182.936 178.709 165.342L182.685 168.623Z" fill="#25A59F"/>
<path d="M39.8108 21.7108C59.9525 6.06332 85.1886 -1.57532 110.643 0.270901C136.097 2.11712 159.962 13.3172 177.627 31.7068L173.904 35.2715C157.122 17.8013 134.45 7.16127 110.269 5.40736C86.0875 3.65344 62.1133 10.9102 42.9786 25.7753L39.8108 21.7108Z" fill="#25A59F"/>
<path d="M42.7943 186.522C30.8776 177.936 20.9357 166.907 13.6343 154.174C6.33285 141.441 1.84039 127.298 0.457681 112.691C-0.925028 98.0843 0.833928 83.3511 5.61678 69.4779C10.3996 55.6048 18.096 42.9119 28.1906 32.2491L31.9394 35.7866C22.3496 45.9163 15.038 57.9746 10.4943 71.154C5.9506 84.3335 4.27959 98.3301 5.59317 112.207C6.90674 126.083 11.1746 139.519 18.1109 151.616C25.0473 163.712 34.4921 174.189 45.813 182.346L42.7943 186.522Z" fill="#25A59F"/>
<path d="M179.71 32.3578C179.71 35.202 177.401 37.5078 174.552 37.5078C171.703 37.5078 169.394 35.202 169.394 32.3578C169.394 29.5135 171.703 27.2078 174.552 27.2078C177.401 27.2078 179.71 29.5135 179.71 32.3578Z" fill="#25A59F"/>
<path d="M183.149 169.691C183.149 172.535 180.84 174.841 177.991 174.841C175.142 174.841 172.833 172.535 172.833 169.691C172.833 166.847 175.142 164.541 177.991 164.541C180.84 164.541 183.149 166.847 183.149 169.691Z" fill="#25A59F"/>
<path d="M47.8855 23.2022C47.8855 26.0465 45.576 28.3522 42.7271 28.3522C39.8783 28.3522 37.5688 26.0465 37.5688 23.2022C37.5688 20.358 39.8783 18.0522 42.7271 18.0522C45.576 18.0522 47.8855 20.358 47.8855 23.2022Z" fill="#25A59F"/>
<path d="M34.1299 35.7911C34.1299 38.6354 31.8204 40.9411 28.9715 40.9411C26.1226 40.9411 23.8131 38.6354 23.8131 35.7911C23.8131 32.9468 26.1226 30.6411 28.9715 30.6411C31.8204 30.6411 34.1299 32.9468 34.1299 35.7911Z" fill="#25A59F"/>
<path d="M49.0318 184.569C49.0318 187.413 46.7223 189.719 43.8735 189.719C41.0246 189.719 38.7151 187.413 38.7151 184.569C38.7151 181.724 41.0246 179.419 43.8735 179.419C46.7223 179.419 49.0318 181.724 49.0318 184.569Z" fill="#25A59F"/>
<path d="M62.7875 192.58C62.7875 195.424 60.478 197.73 57.6291 197.73C54.7802 197.73 52.4707 195.424 52.4707 192.58C52.4707 189.735 54.7802 187.43 57.6291 187.43C60.478 187.43 62.7875 189.735 62.7875 192.58Z" fill="#25A59F"/>
<path d="M216.392 87.8632H187.735V139.363H170.54V70.6966H216.392V87.8632Z" fill="#25A59F"/>
<path d="M241.611 98.1632H258.805V70.6966H276V139.363H258.805V115.33H241.611V139.363H224.416V70.6966H241.611V98.1632Z" fill="#25A59F"/>
</svg>
