<svg width="245" height="183" viewBox="0 0 245 183" fill="none" xmlns="http://www.w3.org/2000/svg">
<path d="M90.3319 55.6862C106.203 55.6862 119.647 66.0598 124.248 80.3899L116.982 88.839L107.152 77.1573L103.985 80.8397L103.997 80.8536L92.2199 94.5468L85.2153 86.2219L85.2242 86.2119L82.097 82.4948L58.9067 108.028L59.1269 108.433L59.4746 109.048L59.7975 109.595L60.1423 110.155L60.4896 110.697L60.8653 111.261L61.25 111.814L61.6567 112.376L82.0474 89.9043L92.1802 101.947L107.124 84.5698L116.92 96.2118L116.976 96.1453L117 96.1731L125.584 86.1911C125.821 87.8499 125.946 89.5451 125.946 91.2694C125.946 110.922 110.001 126.853 90.3319 126.853C70.6627 126.853 54.7175 110.921 54.7175 91.2694C54.7178 71.6176 70.6629 55.6863 90.3319 55.6862ZM139.08 77.9764L135.088 75.1398L125.584 86.1911C125.299 84.1993 124.849 82.2611 124.248 80.3899L131.163 72.3509L127.765 69.9354L142.227 61.7862L139.08 77.9764Z" fill="white"/>
<path d="M151.853 139.062C145.339 147.276 137.231 154.09 128.016 159.094C118.801 164.099 108.668 167.191 98.2265 168.186C87.7855 169.18 77.2511 168.056 67.2558 164.881C57.2603 161.705 48.6168 156.967 40.6673 150.131L59.4746 127.922C64.4737 132.221 69.7235 135.375 76.0093 137.372C82.2949 139.369 88.92 140.075 95.4859 139.45C102.052 138.825 108.423 136.879 114.218 133.732C120.013 130.585 125.112 126.3 129.208 121.135L151.853 139.062Z" fill="white"/>
<path d="M69.7211 46.6387C62.5475 50.0663 56.3175 55.1885 51.5701 61.562C46.8229 67.9354 43.7012 75.3682 42.4748 83.2178C41.2483 91.0675 41.9545 99.0981 44.5317 106.614C47.109 114.13 51.4794 120.906 57.2661 126.355L38.4364 148.203C29.2345 139.538 21.2983 127.921 17.1999 115.969C13.1016 104.018 11.9794 91.2484 13.9297 78.7659C15.8799 66.2834 20.8439 54.4634 28.393 44.3283C35.9421 34.1933 45.8489 26.0482 57.2561 20.5976L69.7211 46.6387Z" fill="white"/>
<path d="M59.9185 19.2868C75.0778 12.8582 92.3958 11.2804 108.438 14.9999C124.48 18.7196 138.928 27.4271 149.704 39.8695L127.858 58.7582C121.081 50.9339 111.995 45.4583 101.907 43.1191C91.819 40.7799 81.8791 41.2631 72.346 45.3058L59.9185 19.2868Z" fill="white"/>
<path d="M162.166 149.796C148.555 166.248 129.616 177.428 108.626 181.401C87.6358 185.374 65.9161 181.89 47.2256 171.552L49.4433 167.55C67.1993 177.37 87.833 180.68 107.773 176.906C127.714 173.131 145.706 162.511 158.637 146.882L162.166 149.796Z" fill="white"/>
<path d="M35.3393 19.2868C53.2187 5.38635 75.6203 -1.39944 98.2155 0.240655C120.811 1.88075 141.995 11.8303 157.676 28.1667L154.371 31.3334C139.475 15.8138 119.349 6.36171 97.8837 4.80362C76.4183 3.24553 55.1368 9.69203 38.1513 22.8974L35.3393 19.2868Z" fill="white"/>
<path d="M37.9877 165.697C27.4095 158.069 18.5842 148.272 12.1029 136.961C5.62156 125.649 1.63368 113.085 0.406275 100.109C-0.82113 87.1331 0.740262 74.0449 4.98591 61.7207C9.23156 49.3965 16.0635 38.1208 25.0242 28.6485L28.352 31.791C19.8393 40.7897 13.349 51.5017 9.3156 63.2097C5.28223 74.9176 3.79891 87.3515 4.96495 99.6786C6.13098 112.006 9.91946 123.942 16.0767 134.688C22.234 145.433 30.618 154.741 40.6673 161.987L37.9877 165.697Z" fill="white"/>
<path d="M159.526 28.745C159.526 31.2717 157.476 33.32 154.947 33.32C152.418 33.32 150.368 31.2717 150.368 28.745C150.368 26.2183 152.418 24.17 154.947 24.17C157.476 24.17 159.526 26.2183 159.526 28.745Z" fill="white"/>
<path d="M162.578 150.745C162.578 153.272 160.528 155.32 157.999 155.32C155.47 155.32 153.42 153.272 153.42 150.745C153.42 148.218 155.47 146.17 157.999 146.17C160.528 146.17 162.578 148.218 162.578 150.745Z" fill="white"/>
<path d="M42.5071 20.6117C42.5071 23.1384 40.457 25.1867 37.9281 25.1867C35.3992 25.1867 33.3491 23.1384 33.3491 20.6117C33.3491 18.085 35.3992 16.0367 37.9281 16.0367C40.457 16.0367 42.5071 18.085 42.5071 20.6117Z" fill="white"/>
<path d="M30.2964 31.795C30.2964 34.3217 28.2464 36.37 25.7175 36.37C23.1886 36.37 21.1385 34.3217 21.1385 31.795C21.1385 29.2683 23.1886 27.22 25.7175 27.22C28.2464 27.22 30.2964 29.2683 30.2964 31.795Z" fill="white"/>
<path d="M43.5246 163.961C43.5246 166.488 41.4745 168.536 38.9456 168.536C36.4167 168.536 34.3667 166.488 34.3667 163.961C34.3667 161.435 36.4167 159.386 38.9456 159.386C41.4745 159.386 43.5246 161.435 43.5246 163.961Z" fill="white"/>
<path d="M55.7353 171.078C55.7353 173.605 53.6852 175.653 51.1563 175.653C48.6274 175.653 46.5773 173.605 46.5773 171.078C46.5773 168.551 48.6274 166.503 51.1563 166.503C53.6852 166.503 55.7353 168.551 55.7353 171.078Z" fill="white"/>
<path d="M192.087 78.0532H166.648V123.803H151.385V62.8033H192.087V78.0532Z" fill="white"/>
<path d="M214.473 87.2032H229.737V62.8033H245V123.803H229.737V102.453H214.473V123.803H199.21V62.8033H214.473V87.2032Z" fill="white"/>
</svg>
